<svg width="105" height="14" viewBox="0 0 105 14" fill="none" xmlns="http://www.w3.org/2000/svg">
<path d="M8.96898 6.92176C9.63692 7.13327 10.1601 7.48951 10.5386 7.99046C10.9171 8.48028 11.1064 9.08699 11.1064 9.81059C11.1064 10.8348 10.7056 11.6252 9.9041 12.1818C9.1137 12.7273 7.95594 13 6.43082 13H0.385972V1.31108H6.09685C7.52178 1.31108 8.61275 1.58382 9.36975 2.1293C10.1379 2.67478 10.5219 3.41508 10.5219 4.3502C10.5219 4.91794 10.3828 5.42446 10.1045 5.86976C9.8373 6.31505 9.4588 6.66572 8.96898 6.92176ZM3.07442 3.34829V6.10354H5.76288C6.43082 6.10354 6.93734 5.98665 7.28244 5.75287C7.62754 5.51909 7.80009 5.17399 7.80009 4.71756C7.80009 4.26114 7.62754 3.9216 7.28244 3.69896C6.93734 3.46518 6.43082 3.34829 5.76288 3.34829H3.07442ZM6.23043 10.9628C6.9429 10.9628 7.47725 10.8459 7.83349 10.6121C8.20085 10.3783 8.38454 10.0165 8.38454 9.52672C8.38454 8.55821 7.6665 8.07395 6.23043 8.07395H3.07442V10.9628H6.23043ZM15.5284 5.20182C15.8401 4.76766 16.2576 4.43925 16.7808 4.21661C17.3151 3.99396 17.9274 3.88264 18.6176 3.88264V6.28722C18.3282 6.26495 18.1334 6.25382 18.0332 6.25382C17.2873 6.25382 16.7028 6.46534 16.2798 6.88836C15.8568 7.30026 15.6453 7.92367 15.6453 8.75859V13H13.0403V4.01623H15.5284V5.20182ZM23.8107 3.88264C25.2023 3.88264 26.271 4.21661 27.0168 4.88455C27.7627 5.54135 28.1356 6.5377 28.1356 7.87357V13H25.6977V11.8812C25.2078 12.7161 24.295 13.1336 22.9591 13.1336C22.2689 13.1336 21.6678 13.0167 21.1557 12.7829C20.6547 12.5491 20.2707 12.2263 20.0035 11.8144C19.7363 11.4025 19.6027 10.935 19.6027 10.4117C19.6027 9.57682 19.9144 8.92001 20.5378 8.44132C21.1724 7.96263 22.1465 7.72329 23.4601 7.72329H25.5307C25.5307 7.15554 25.3581 6.72138 25.013 6.42081C24.6679 6.1091 24.1503 5.95325 23.4601 5.95325C22.9814 5.95325 22.5083 6.03118 22.0407 6.18703C21.5843 6.33175 21.1946 6.53213 20.8718 6.78817L19.9367 4.96804C20.4265 4.62294 21.011 4.35576 21.69 4.16651C22.3802 3.97726 23.0871 3.88264 23.8107 3.88264ZM23.6104 11.3802C24.0557 11.3802 24.4508 11.2801 24.7959 11.0797C25.1411 10.8682 25.386 10.562 25.5307 10.1613V9.24285H23.7439C22.6752 9.24285 22.1409 9.59351 22.1409 10.2948C22.1409 10.6288 22.2689 10.896 22.525 11.0964C22.7921 11.2856 23.1539 11.3802 23.6104 11.3802ZM36.0232 3.88264C37.1365 3.88264 38.0326 4.21661 38.7117 4.88455C39.4019 5.55249 39.747 6.54326 39.747 7.85687V13H37.142V8.25764C37.142 7.54517 36.9862 7.01638 36.6745 6.67128C36.3628 6.31505 35.9119 6.13693 35.3219 6.13693C34.6651 6.13693 34.1419 6.34288 33.7522 6.75478C33.3626 7.15554 33.1678 7.75668 33.1678 8.55821V13H30.5628V4.01623H33.0509V5.06823C33.396 4.68973 33.8246 4.40029 34.3367 4.19991C34.8488 3.9884 35.411 3.88264 36.0232 3.88264ZM51.4264 0.609741V13H48.9384V11.9647C48.2927 12.744 47.3576 13.1336 46.133 13.1336C45.287 13.1336 44.5188 12.9443 43.8286 12.5658C43.1496 12.1873 42.6152 11.6474 42.2256 10.9461C41.8359 10.2448 41.6411 9.4321 41.6411 8.50811C41.6411 7.58413 41.8359 6.77147 42.2256 6.07014C42.6152 5.3688 43.1496 4.82889 43.8286 4.45039C44.5188 4.07189 45.287 3.88264 46.133 3.88264C47.2796 3.88264 48.1758 4.24444 48.8215 4.96804V0.609741H51.4264ZM46.5839 10.9962C47.2407 10.9962 47.7862 10.7735 48.2203 10.3282C48.6545 9.87182 48.8716 9.26511 48.8716 8.50811C48.8716 7.75112 48.6545 7.14997 48.2203 6.70468C47.7862 6.24826 47.2407 6.02004 46.5839 6.02004C45.9159 6.02004 45.3649 6.24826 44.9307 6.70468C44.4966 7.14997 44.2795 7.75112 44.2795 8.50811C44.2795 9.26511 44.4966 9.87182 44.9307 10.3282C45.3649 10.7735 45.9159 10.9962 46.5839 10.9962ZM64.8111 1.31108V13H62.5902L56.7624 5.90315V13H54.0907V1.31108H56.3283L62.1393 8.40792V1.31108H64.8111ZM71.0861 3.88264C72.4776 3.88264 73.5463 4.21661 74.2922 4.88455C75.0381 5.54135 75.411 6.5377 75.411 7.87357V13H72.973V11.8812C72.4832 12.7161 71.5703 13.1336 70.2345 13.1336C69.5443 13.1336 68.9431 13.0167 68.431 12.7829C67.9301 12.5491 67.546 12.2263 67.2788 11.8144C67.0117 11.4025 66.8781 10.935 66.8781 10.4117C66.8781 9.57682 67.1898 8.92001 67.8132 8.44132C68.4477 7.96263 69.4218 7.72329 70.7354 7.72329H72.806C72.806 7.15554 72.6335 6.72138 72.2884 6.42081C71.9433 6.1091 71.4256 5.95325 70.7354 5.95325C70.2567 5.95325 69.7836 6.03118 69.316 6.18703C68.8596 6.33175 68.47 6.53213 68.1472 6.78817L67.212 4.96804C67.7019 4.62294 68.2863 4.35576 68.9654 4.16651C69.6556 3.97726 70.3625 3.88264 71.0861 3.88264ZM70.8857 11.3802C71.331 11.3802 71.7262 11.2801 72.0713 11.0797C72.4164 10.8682 72.6613 10.562 72.806 10.1613V9.24285H71.0193C69.9506 9.24285 69.4162 9.59351 69.4162 10.2948C69.4162 10.6288 69.5443 10.896 69.8003 11.0964C70.0675 11.2856 70.4293 11.3802 70.8857 11.3802ZM89.3434 3.88264C90.4678 3.88264 91.3584 4.21661 92.0152 4.88455C92.6831 5.54135 93.0171 6.53213 93.0171 7.85687V13H90.4121V8.25764C90.4121 7.54517 90.2618 7.01638 89.9613 6.67128C89.6718 6.31505 89.2544 6.13693 88.7089 6.13693C88.0966 6.13693 87.6123 6.33731 87.2561 6.73808C86.8999 7.12771 86.7218 7.71215 86.7218 8.49142V13H84.1168V8.25764C84.1168 6.84383 83.5491 6.13693 82.4136 6.13693C81.8124 6.13693 81.3337 6.33731 80.9775 6.73808C80.6213 7.12771 80.4431 7.71215 80.4431 8.49142V13H77.8382V4.01623H80.3262V5.05153C80.6602 4.67303 81.0665 4.38359 81.5452 4.18321C82.0351 3.98283 82.5694 3.88264 83.1483 3.88264C83.7828 3.88264 84.3561 4.01066 84.8682 4.2667C85.3803 4.51161 85.7922 4.87341 86.1039 5.3521C86.4713 4.88455 86.9333 4.52275 87.4899 4.2667C88.0576 4.01066 88.6755 3.88264 89.3434 3.88264ZM104.32 8.54151C104.32 8.57491 104.303 8.80869 104.269 9.24285H97.4731C97.5956 9.79946 97.885 10.2392 98.3415 10.562C98.7979 10.8849 99.3656 11.0463 100.045 11.0463C100.512 11.0463 100.924 10.9795 101.28 10.8459C101.648 10.7012 101.987 10.4785 102.299 10.178L103.685 11.6808C102.839 12.6493 101.603 13.1336 99.9779 13.1336C98.9649 13.1336 98.0687 12.9388 97.2894 12.5491C96.5102 12.1484 95.909 11.5973 95.486 10.896C95.063 10.1947 94.8515 9.3987 94.8515 8.50811C94.8515 7.62866 95.0574 6.83827 95.4693 6.13693C95.8923 5.42446 96.4657 4.87341 97.1893 4.48378C97.924 4.08302 98.7422 3.88264 99.6439 3.88264C100.523 3.88264 101.319 4.07189 102.032 4.45039C102.744 4.82889 103.301 5.37437 103.702 6.08684C104.114 6.78817 104.32 7.6064 104.32 8.54151ZM99.6606 5.85306C99.0706 5.85306 98.5752 6.02004 98.1745 6.35401C97.7737 6.68798 97.5288 7.14441 97.4397 7.72329H101.865C101.776 7.15554 101.531 6.70468 101.13 6.37071C100.729 6.02561 100.24 5.85306 99.6606 5.85306Z" fill="white"/>
</svg>
